<svg width="696" height="1294" viewBox="0 0 696 1294" fill="none" xmlns="http://www.w3.org/2000/svg">
<circle cx="348" cy="772" r="317.5" fill="#413F3A" stroke="white" stroke-width="61"/>
<path d="M302.5 880.5C355.246 850.491 387.042 833.688 522 804.5C511.963 687.75 512.255 601.231 527.016 466C460.966 482.256 429.046 510.088 372.872 562.5C347.487 657.326 325.409 759.532 302.5 880.5Z" fill="#F2EADB"/>
<path d="M170.5 804.5C184.353 814.999 196.609 831.735 252 880.5C264.063 821.49 276.17 766.607 288.953 714.5C250.996 708.337 231.128 699.946 203.5 677.5C187.271 731.921 185.936 742.217 170.5 804.5Z" fill="#F2EADB"/>
<path d="M593.5 0C428.515 275.155 350.823 462.307 288.953 714.5C276.17 766.607 264.063 821.49 252 880.5H277.25H302.5C325.409 759.532 347.487 657.326 372.872 562.5C422.954 375.412 485.906 217.051 593.5 0Z" fill="white"/>
<path d="M280 1144.5C280.182 1038.43 288.953 983.5 302.5 880.5H277.25H252C250.489 997.253 246.651 1048.31 239 1135.5V1294L280 1144.5Z" fill="white"/>
<path d="M593.5 0C485.906 217.051 422.954 375.412 372.872 562.5C429.71 485.205 463.915 445.387 536.002 391C548.662 292.708 567.472 169.156 593.5 0Z" fill="#F2EADB"/>
<path d="M288.953 714.5C350.823 462.307 428.515 275.155 593.5 0C395.174 196.404 289.054 398.023 218 620.5C229.5 660.5 255.308 681.223 288.953 714.5Z" fill="#F2EADB"/>
<path d="M301.929 881C288.428 983.609 279.685 1038.56 279.5 1144.43L239.5 1290.29V1135.52C247.14 1048.46 250.978 997.409 252.493 881H301.929ZM587.494 11.0195C483.268 222.352 421.613 378.488 372.389 562.371C347.028 657.107 324.969 759.203 302.086 880H252.613C264.6 821.392 276.632 766.856 289.329 715.067L290.417 715.244L289.507 714.344C350.542 465.646 426.995 280.188 587.494 11.0195ZM203.767 678.357C217.357 689.345 229.12 696.948 242.155 702.565C255.249 708.208 269.602 711.839 288.339 714.905C275.662 766.614 263.648 821.058 251.683 879.553C224.38 855.493 207.647 839.291 196.024 827.795C184.47 816.366 177.928 809.55 171.063 804.302C186.361 742.563 187.77 732.048 203.767 678.357ZM526.44 466.659C511.771 601.344 511.481 687.748 521.464 804.104C454.23 818.656 412.625 830.135 381.247 841.723C350.169 853.2 329.135 864.779 303.192 879.531C326.017 759.092 348.027 657.261 373.317 562.768C429.222 510.61 461.036 482.896 526.44 466.659ZM591.019 3.1709C427.605 276.182 350.269 462.757 288.678 713.526C255.336 680.607 229.927 660.008 218.522 620.507C289.217 399.213 394.624 198.579 591.019 3.1709ZM592.514 3.12012C566.759 170.517 548.113 293.082 535.532 390.727C464.175 444.584 429.919 484.208 374.045 560.066C423.782 374.966 486.295 217.674 592.514 3.12012Z" stroke="white"/>
</svg>
